<?xml version="1.0" standalone="no"?>
<!DOCTYPE svg PUBLIC "-//W3C//DTD SVG 20010904//EN"
 "http://www.w3.org/TR/2001/REC-SVG-20010904/DTD/svg10.dtd">
<svg version="1.0" xmlns="http://www.w3.org/2000/svg"
 width="288.000000pt" height="288.000000pt" viewBox="0 0 288.000000 288.000000"
 preserveAspectRatio="xMidYMid meet">

<g transform="translate(0.000000,288.000000) scale(0.100000,-0.100000)"
fill="#000000" stroke="none">
<path d="M1170 2495 c-53 -53 -56 -55 -110 -55 -68 0 -200 -29 -300 -65 -87
-32 -190 -82 -190 -93 0 -14 124 -83 142 -79 10 3 16 1 12 -4 -9 -15 -36 -10
-93 16 -30 14 -56 23 -59 20 -21 -21 130 -82 224 -92 47 -5 55 -3 78 20 14 14
26 22 26 17 0 -6 -9 -19 -20 -30 -23 -23 -11 -35 26 -26 40 10 60 65 48 127
-7 31 -7 46 -1 40 6 -6 51 -7 111 -4 88 5 885 -24 894 -32 2 -2 -207 -3 -465
-2 -257 1 -480 -1 -495 -6 -23 -6 -28 -13 -28 -40 -1 -17 -7 -43 -15 -57 -21
-36 -20 -37 32 -43 35 -4 52 -11 63 -28 24 -37 71 -89 81 -89 18 0 22 50 5 69
-9 10 -16 19 -16 22 0 2 91 5 203 6 114 0 239 7 287 15 78 12 88 12 128 -5
l43 -18 30 25 c17 14 37 26 45 26 8 0 14 5 14 11 0 7 -13 9 -37 5 l-38 -5 35
14 c19 7 47 14 62 14 15 1 30 6 33 11 3 6 17 10 31 10 13 0 32 4 42 10 22 12
158 42 194 43 15 0 43 -13 65 -30 52 -41 97 -63 129 -63 26 0 26 1 -20 49 -25
28 -53 66 -63 85 l-17 36 50 100 c30 61 45 100 37 100 -21 0 -83 -61 -125
-124 -22 -34 -48 -67 -56 -73 -21 -17 -103 -16 -182 3 -36 8 -92 21 -125 28
-33 8 -51 14 -40 15 17 2 15 4 -10 18 -16 8 -39 24 -50 34 -20 18 -22 18 -57
-6 -35 -23 -36 -24 -114 -10 -44 7 -144 18 -224 25 -80 6 -147 13 -149 16 -2
2 1 4 8 4 9 0 9 5 0 23 -7 12 -15 35 -18 50 l-6 28 -55 -56z m-436 -181 c21
-8 21 -43 0 -51 -8 -3 -23 1 -31 10 -13 13 -14 19 -3 31 14 18 13 18 34 10z"/>
<path d="M716 2294 c-8 -22 1 -31 16 -16 9 9 9 15 1 23 -7 7 -12 5 -17 -7z"/>
<path d="M1493 1968 c-11 -5 -29 -24 -38 -42 -16 -28 -22 -31 -73 -34 -71 -3
-190 -44 -267 -90 -33 -20 -94 -71 -137 -114 l-76 -78 -61 0 c-71 0 -71 0 -44
-107 14 -58 15 -79 4 -170 -33 -287 48 -600 195 -750 100 -102 215 -140 371
-122 224 25 497 203 639 416 24 36 44 55 62 58 110 23 166 64 202 147 51 119
-7 264 -125 314 -17 7 -36 23 -42 36 -103 222 -184 313 -360 402 l-53 26 0
-34 c0 -31 4 -36 53 -60 58 -28 154 -108 200 -165 39 -48 83 -135 65 -129 -7
3 -107 35 -221 72 l-208 67 -290 1 c-159 1 -289 5 -289 9 0 4 27 32 60 62 69
64 175 121 257 137 32 6 72 15 90 19 29 8 32 6 49 -30 9 -22 21 -39 26 -39 5
0 1 14 -7 31 -19 36 -15 44 20 35 15 -4 25 -13 25 -25 0 -53 92 -70 137 -25
21 21 25 32 20 65 -13 95 -106 155 -184 117z m83 -14 c32 -15 74 -57 74 -74 0
-4 -24 -5 -52 -4 -45 3 -49 2 -26 -7 28 -11 43 -35 28 -44 -5 -3 -11 4 -15 15
-3 11 -12 20 -20 20 -7 0 -20 6 -27 14 -23 22 -59 30 -69 15 -7 -11 -9 -11 -9
1 0 17 27 60 44 72 17 12 35 9 72 -8z m74 -128 c0 -53 -48 -67 -92 -28 -24 20
-23 32 2 32 11 0 20 -7 20 -15 0 -8 6 -15 14 -15 18 0 39 27 31 40 -3 5 1 10
9 10 10 0 16 -9 16 -24z m165 -340 c204 -54 235 -68 235 -103 0 -7 28 -26 63
-42 46 -20 70 -38 86 -64 44 -72 40 -155 -11 -213 -39 -44 -72 -61 -135 -70
-47 -6 -51 -9 -83 -63 -42 -70 -196 -225 -275 -276 -197 -128 -385 -169 -530
-114 -126 47 -229 190 -275 380 -24 99 -44 307 -35 361 l7 38 96 0 c54 0 103
4 110 9 8 4 29 46 47 92 31 77 37 84 62 84 24 0 30 -7 56 -75 42 -110 41 -110
163 -110 119 0 123 3 143 100 24 112 31 131 49 126 9 -3 112 -30 227 -60z"/>
<path d="M1121 1316 c-19 -43 -49 -89 -72 -111 -75 -71 -42 -145 68 -152 43
-3 54 -2 43 6 -8 6 -23 11 -33 11 -32 0 -77 30 -83 56 -5 19 1 34 23 62 34 42
54 79 83 151 30 77 10 60 -29 -23z"/>
<path d="M2071 1237 c-6 -8 -16 -37 -23 -65 -22 -97 35 -100 61 -4 11 42 11
55 1 67 -15 18 -24 19 -39 2z"/>
<path d="M1023 904 c-21 -9 -15 -33 10 -38 12 -3 63 -7 112 -9 68 -4 111 -13
178 -37 93 -34 142 -35 100 -1 -40 33 -201 78 -298 84 -49 3 -96 4 -102 1z"/>
</g>
</svg>
